<!-- Generator: Adobe Illustrator 21.0.2, SVG Export Plug-In  -->
<svg version="1.1"
	 xmlns="http://www.w3.org/2000/svg" xmlns:xlink="http://www.w3.org/1999/xlink" xmlns:a="http://ns.adobe.com/AdobeSVGViewerExtensions/3.0/"
	 x="0px" y="0px" width="187.1px" height="29.6px" viewBox="0 0 187.1 29.6" style="enable-background:new 0 0 187.1 29.6;"
	 xml:space="preserve">
<style type="text/css">
	.st0{fill-rule:evenodd;clip-rule:evenodd;fill:#FFFFFF;}
	.st1{fill-rule:evenodd;clip-rule:evenodd;fill:#FFCC00;stroke:#FFCC00;stroke-width:9.012000e-02;stroke-miterlimit:2.6131;}
	.st2{fill:none;stroke:#FFCC00;stroke-width:0.1375;stroke-miterlimit:2.6131;}
	.st3{fill-rule:evenodd;clip-rule:evenodd;}
</style>
<defs>
</defs>
<g>
	<path class="st0" d="M7,12.4h3.6C10.6,10.2,9,8,5.4,8C1.8,8,0,10.6,0,13.7c0,3.3,2.1,5.6,5.6,5.6c3.4,0,5-2.1,5-4.4H7.1
		c-0.1,0.7-0.5,1.5-1.5,1.5c-1,0-1.8-0.8-1.8-2.8c0-2,0.9-2.6,1.8-2.6C6.5,11,6.9,11.8,7,12.4L7,12.4z"/>
	<path class="st0" d="M20.2,19.1v-7.6h3.1v0.6c0.5-0.6,1.3-1,2.4-1c1,0,2.1,0.5,2.5,1.2c0.4-0.6,1.4-1.1,2.5-1.1
		c1.3,0,2.1,0.6,2.5,1.2c0.4-0.6,1.4-1.2,2.4-1.2c1.3,0,2,0.5,2.6,1.2c0.7-1,1.8-1.2,2.4-1.2c2.3,0,2.9,1.5,2.9,3.2
		c0,1.7,0,4.8,0,4.8h-3.3v-4.2c0-0.7-0.2-1-0.8-1c-0.5,0-0.9,0.5-0.9,1.1c0,0.6,0,4.2,0,4.2H35v-4.2c0-0.7-0.2-1-0.7-1
		c-0.5,0-0.9,0.5-0.9,1.1c0,0.6,0,4.2,0,4.2h-3.3v-4.2c0-0.7-0.2-1-0.8-1c-0.5,0-0.8,0.5-0.8,1.1c0,0.6,0,4.2,0,4.2h-3.3v-4.2
		c0-0.7-0.2-1-0.8-1c-0.5,0-0.9,0.5-0.9,1.1c0,0.6,0,4.2,0,4.2H20.2L20.2,19.1z"/>
	<path class="st0" d="M61.4,13.7c0,0.6,0,5.4,0,5.4h-3.3v-4.2c0-0.7-0.3-1-0.8-1c-0.5,0-0.9,0.5-0.9,1.1c0,0.6,0,4.2,0,4.2H53v-7.6
		h3.1v0.6c0.5-0.6,1.6-1,2.4-1C59.6,11,61.4,11.7,61.4,13.7L61.4,13.7z"/>
	<path class="st0" d="M69,19.1c-0.1-0.5-0.4-1.2-0.6-2.1c-0.2-0.6-0.3-1.2-0.3-1.5c0,0.3-0.1,0.8-0.3,1.5c-0.2,0.7-0.4,1.5-0.6,2
		h-3.5l-2.3-7.6h3.6c0.1,0.5,0.3,1.2,0.5,1.9c0.1,0.6,0.2,1.1,0.2,1.4c0-0.3,0.1-0.8,0.3-1.4c0.2-0.7,0.4-1.4,0.6-1.9l0,0h3
		c0.1,0.5,0.3,1.1,0.5,1.9c0.1,0.6,0.3,1.1,0.3,1.4c0-0.3,0.1-0.8,0.3-1.4c0.2-0.7,0.4-1.4,0.5-1.9h3.5l-2.3,7.6L69,19.1L69,19.1z"
		/>
	<polygon class="st0" points="92.6,8.3 95.9,8.3 95.9,19.1 92.6,19.1 92.6,8.3 	"/>
	<path class="st0" d="M102.1,16.7v2.2c-0.1,0.1-0.8,0.4-1.9,0.4c-2.2,0-2.8-1.1-2.8-3.1v-2.7h-1v-2.1h1v-3h3.3v3h1.3v2.1h-1.3v2.1
		c0,0.6,0.2,0.8,0.4,1.1C101.3,16.9,101.9,16.8,102.1,16.7L102.1,16.7z"/>
	<path class="st0" d="M111.2,13.4c0,0.6,0,5.7,0,5.7h-3.3v-4.2c0-0.7-0.3-1-0.8-1c-0.5,0-0.9,0.5-0.9,1.1c0,0.6,0,4.2,0,4.2h-3.4
		l0-10.8h3.2v3.8c0.4-0.6,1.6-1.1,2.4-1.1C109.9,11,111.2,12.1,111.2,13.4L111.2,13.4z"/>
	<polygon class="st0" points="138.9,14.5 137.5,15.9 137.5,19.1 136.8,19.1 136.8,8.1 137.5,8.1 137.5,15.2 141.7,11.2 142.5,11.2 
		139.5,14.1 142.8,19.1 142.1,19.1 138.9,14.5 	"/>
	<path class="st0" d="M133.4,11.7c-1.3,0-2.4,1-2.4,2.3v5h-0.7v-7.8h0.7v1.3c0.3-0.5,1.1-1.5,2.5-1.5c2.1,0,2.7,1.5,2.7,2.8v5.2
		h-0.7v-4.9C135.5,12.2,134.4,11.7,133.4,11.7L133.4,11.7z"/>
	<path class="st0" d="M119,8.3c1.9,0,3.2,1.1,3.1,2.6c0,1.3-0.8,2.1-1.5,2.4c0.6,0.2,2.1,0.8,2.1,2.7c0,2.2-1.7,3-3.3,3h-4.6V8.3
		H119L119,8.3z M118.9,13.1c1,0,2.6-0.3,2.5-2.1c0-1.7-1.3-2.1-2.3-2h-3.6v4.1H118.9L118.9,13.1z M115.5,18.4h3.8
		c1.8,0,2.6-0.9,2.6-2.3c0-1.3-1.1-2.3-2.4-2.3h-4V18.4L115.5,18.4z"/>
	<path class="st0" d="M130,18.6V19c-0.2,0.1-0.5,0.1-0.7,0.1c-0.2,0-0.9-0.1-0.9-1.4c-0.7,1-1.7,1.5-2.9,1.5c-1.2,0-2.4-0.6-2.4-2.3
		c0-1.6,1.3-2,1.9-2.1c0.5-0.1,1.9-0.3,2.2-0.3c0.3-0.1,1.2-0.1,1.2-0.9c0-0.2,0-0.4,0-0.7c0-0.6-0.4-1.4-2.2-1.4
		c-1.9,0-2.3,1.6-2.3,1.8h-0.5c0-0.9,0.7-2.3,2.7-2.3c2.9,0,3,1.5,3,2.5v4.5C129.1,18.5,129.4,18.7,130,18.6L130,18.6z M128.4,16.2
		v-1.3l-2.7,0.4c-0.7,0.1-1.9,0.4-1.9,1.8c0,1.3,1,1.6,1.9,1.6C127,18.7,128.4,17.8,128.4,16.2L128.4,16.2z"/>
	<path class="st0" d="M15.2,10.9c3.2,0,4.6,2,4.6,4.2c0,2.9-2.3,4.2-4.5,4.2c-2.8,0-4.4-1.8-4.4-4C11,13.2,12.2,10.9,15.2,10.9
		L15.2,10.9z M15.4,17.2c0.9,0,1-1.2,1-2c0-0.7-0.1-1.9-1-1.9c-0.9,0-1,1.2-1,1.9C14.4,16,14.5,17.2,15.4,17.2L15.4,17.2z"/>
	<path class="st0" d="M48,10.9c3.2,0,4.6,2,4.6,4.2c0,2.9-2.3,4.2-4.5,4.2c-2.8,0-4.4-1.8-4.4-4C43.8,13.2,45,10.9,48,10.9L48,10.9z
		 M48.2,17.2c0.9,0,1-1.2,1-2c0-0.7-0.1-1.9-1-1.9c-0.9,0-1,1.2-1,1.9C47.2,16,47.3,17.2,48.2,17.2L48.2,17.2z"/>
	<path class="st0" d="M77.8,16c0,0.6,0.4,1.1,1,1.1c0.4,0,0.8-0.1,1-0.4h3.2c-0.7,1.8-2.5,2.6-4.3,2.6c-2.8,0-4.4-1.8-4.4-4
		c0-2.1,1.2-4.4,4.3-4.4c3.2,0,4.6,2,4.6,4.2c0,0.3,0,0.5,0,0.8H77.8L77.8,16z M79.7,14c-0.1-0.5-0.4-0.9-0.9-0.9
		c-0.6,0-0.9,0.4-0.9,0.9H79.7L79.7,14z"/>
	<path class="st0" d="M89,19.1l-0.2-0.5c-0.5,0.5-1.8,0.9-2.4,0.9c-0.5,0-3-0.2-3-2.5c0-2.6,3.4-2.7,4.1-2.8
		c0.6-0.1,1.1-0.3,1.1-0.7c0-0.3-0.2-0.6-0.7-0.6c-0.6,0-0.9,0.5-0.9,1h-3.1c0-1.9,1.6-3,3.9-3c3.8,0,4.2,1.3,4.2,3.4
		c0,0,0,1.9,0,2.5c0,0.6,0,1.3,0.1,1.8l0.2,0.6H89L89,19.1z M87.2,16.3c-0.4,0.2-0.4,0.4-0.2,0.7c0.2,0.3,0.7,0.3,1.2,0
		c0.4-0.3,0.3-0.9,0.3-1.2C87.9,16,87.5,16.1,87.2,16.3L87.2,16.3z"/>
	<polygon class="st1" points="172.5,29.5 157.8,14.8 172.5,0.1 183.4,11.1 178.9,15.7 172.5,29.5 	"/>
	<polyline class="st2" points="183.4,11.2 178.9,15.8 172.7,29.1 	"/>
	<polygon class="st3" points="172.5,29.5 178.9,15.7 183.4,11.1 187.1,14.8 172.5,29.5 	"/>
</g>
</svg>
